<?xml version="1.0" standalone="no"?>
<!DOCTYPE svg PUBLIC "-//W3C//DTD SVG 20010904//EN"
 "http://www.w3.org/TR/2001/REC-SVG-20010904/DTD/svg10.dtd">
<svg version="1.0" xmlns="http://www.w3.org/2000/svg"
 width="700.000000pt" height="700.000000pt" viewBox="0 0 700.000000 700.000000"
 preserveAspectRatio="xMidYMid meet">
<metadata>
Created by potrace 1.11, written by Peter Selinger 2001-2013
</metadata>
<g transform="translate(0.000000,700.000000) scale(0.100000,-0.100000)"
fill="#000000" stroke="none">
<path d="M3250 6994 c-19 -2 -80 -9 -135 -15 -1354 -142 -2521 -1090 -2945
-2394 -255 -785 -223 -1653 90 -2414 227 -552 608 -1057 1070 -1418 779 -608
1731 -859 2703 -713 1244 188 2304 1050 2746 2232 94 253 161 523 196 798 23
174 30 522 16 706 -113 1410 -1064 2617 -2406 3054 -213 69 -410 113 -660 146
-104 14 -595 27 -675 18z m482 -841 c17 -15 18 -38 18 -318 0 -225 -3 -305
-12 -318 -12 -16 -41 -17 -333 -15 l-320 3 -3 320 c-2 292 -1 321 15 333 13 9
93 12 317 12 265 0 302 -2 318 -17z m-682 -312 c0 -176 3 -326 6 -335 5 -12 0
-16 -18 -16 -47 0 -48 5 -48 335 0 323 2 335 42 335 17 0 18 -18 18 -319z
m-90 -7 c0 -198 4 -322 10 -335 9 -16 7 -19 -10 -19 -12 0 -30 5 -41 10 -18
10 -19 24 -19 323 0 325 1 337 42 337 17 0 18 -18 18 -316z m-90 -10 c0 -198
4 -322 10 -335 9 -16 7 -19 -10 -19 -12 0 -30 5 -41 10 -18 10 -19 24 -19 323
0 325 1 337 42 337 17 0 18 -18 18 -316z m-88 -9 c-2 -209 1 -322 8 -335 10
-18 8 -20 -18 -20 -15 0 -33 5 -40 12 -9 9 -12 93 -12 317 0 269 2 307 17 323
9 10 23 18 32 18 14 0 16 -32 13 -315z m-90 -11 c-2 -255 0 -310 12 -335 l15
-30 -37 3 -37 3 -3 319 c-2 327 0 346 37 346 14 0 16 -29 13 -306z m-82 -30
c0 -198 4 -322 10 -335 9 -17 7 -19 -18 -19 -15 0 -33 5 -40 12 -9 9 -12 94
-12 319 0 266 2 310 16 323 8 9 22 16 30 16 12 0 14 -49 14 -316z m1250 296
c-19 -19 -20 -33 -20 -335 l0 -315 -24 0 c-13 0 -27 7 -30 16 -3 9 -6 155 -6
324 0 343 -3 329 68 330 l32 0 -20 -20z m-1340 -319 c0 -297 1 -309 21 -335
l20 -26 -35 0 c-64 0 -66 8 -66 332 0 162 4 298 10 312 6 16 17 26 30 26 20 0
20 -5 20 -309z m1421 283 c-20 -26 -21 -38 -21 -335 0 -321 0 -324 -40 -299
-13 8 -15 56 -18 315 -2 204 1 311 8 325 8 15 21 20 51 20 l40 0 -20 -26z
m-1501 -318 l0 -315 26 -20 27 -21 -41 0 c-73 0 -72 -7 -72 339 0 319 2 331
42 331 17 0 18 -18 18 -314z m1589 295 l-24 -19 -3 -316 c-2 -174 -5 -316 -8
-316 -3 0 -14 5 -25 10 -18 10 -19 24 -19 323 0 230 3 316 12 325 7 7 30 12
51 12 l39 0 -23 -19z m-1679 -311 c0 -312 3 -339 44 -358 18 -9 14 -11 -24
-11 -26 -1 -51 4 -58 11 -17 17 -17 629 0 646 36 36 38 20 38 -288z m1785 290
c-50 -19 -50 -23 -50 -352 0 -318 -2 -330 -39 -292 -14 13 -16 57 -16 323 0
225 3 310 12 319 7 7 35 12 63 11 36 0 44 -3 30 -9z m-1865 -330 l0 -311 25
-25 25 -25 -47 3 -48 3 -3 320 c-2 292 -1 321 15 333 9 6 20 12 25 12 4 0 8
-140 8 -310z m2214 300 c-249 -5 -274 -7 -293 -24 -20 -19 -21 -27 -21 -328 0
-299 -1 -308 -20 -308 -10 0 -24 9 -30 19 -6 12 -10 131 -10 317 0 263 2 300
17 316 15 17 37 18 322 16 l306 -2 -271 -6z m-2294 -338 c0 -250 3 -312 14
-328 13 -18 32 -19 303 -24 l288 -6 -323 -2 -322 -2 -10 26 c-6 14 -10 150
-10 312 0 244 2 291 16 310 8 12 22 22 30 22 12 0 14 -46 14 -308z m2378 298
c-272 -5 -278 -5 -300 -28 -23 -22 -23 -25 -26 -327 -2 -256 -5 -305 -17 -305
-31 0 -35 39 -35 339 0 259 2 302 16 315 13 14 55 16 327 14 l312 -2 -277 -6z
m-2458 -340 c0 -299 1 -311 20 -328 18 -15 54 -18 303 -22 l282 -6 -325 1
-325 0 -3 319 c-2 323 0 346 34 346 12 0 14 -53 14 -310z m2815 300 c4 -7 -91
-10 -279 -10 l-285 0 -20 -26 c-20 -26 -21 -38 -21 -325 0 -256 -2 -299 -15
-299 -31 0 -35 39 -35 339 0 259 2 302 16 315 13 14 57 16 324 16 195 0 311
-4 315 -10z m-2873 -667 c21 -23 22 -23 307 -24 169 0 278 -4 266 -9 -29 -13
-602 -12 -626 0 -18 10 -19 24 -19 323 0 172 4 317 8 323 4 6 14 13 22 16 13
4 15 -35 18 -301 2 -297 3 -306 24 -328z m2943 627 c12 -5 -95 -9 -261 -9
-269 -1 -282 -2 -308 -22 l-26 -20 0 -309 c0 -290 -1 -309 -17 -303 -10 4 -21
11 -25 17 -4 6 -8 149 -8 318 0 306 0 307 22 322 19 14 65 16 313 15 159 0
299 -4 310 -9z m-3045 -345 c0 -292 1 -306 20 -325 19 -19 33 -20 305 -20 183
0 285 -4 285 -10 0 -6 -113 -10 -320 -10 -305 0 -320 1 -330 19 -6 12 -10 132
-10 320 0 259 2 302 16 315 8 9 20 16 25 16 5 0 9 -124 9 -305z m3130 295 c9
-6 -90 -10 -279 -12 l-293 -3 -19 -24 c-18 -22 -19 -43 -19 -323 0 -280 -1
-299 -17 -296 -17 3 -18 28 -21 322 -2 227 1 323 9 332 9 11 70 14 318 14 173
0 312 -4 321 -10z m-3208 -346 l3 -306 24 -19 c22 -18 43 -19 308 -19 187 0
282 -3 278 -10 -9 -15 -628 -13 -643 2 -9 9 -12 94 -12 323 0 305 3 335 32
335 4 0 8 -138 10 -306z m3283 296 c3 -6 -102 -10 -281 -12 l-286 -3 -24 -28
-24 -28 0 -295 c0 -162 -4 -294 -8 -294 -29 0 -32 29 -32 335 0 229 3 314 12
323 15 15 633 17 643 2z m-3326 -671 c22 -18 43 -19 309 -19 193 0 283 -3 276
-10 -7 -7 -124 -9 -330 -8 l-319 3 -3 320 c-2 296 -1 321 15 333 17 12 18 -3
23 -293 l5 -307 24 -19z m3397 616 c17 -13 -14 -14 -272 -15 -272 0 -293 -1
-315 -19 l-24 -19 -3 -301 c-2 -166 -6 -301 -10 -301 -29 0 -32 30 -32 331 0
266 2 310 16 323 22 23 610 24 640 1z m-3496 -345 c0 -287 1 -301 20 -320 19
-19 33 -20 310 -20 263 0 323 -5 274 -24 -9 -3 -152 -6 -318 -6 -222 0 -305 3
-314 12 -9 9 -12 94 -12 323 0 306 3 335 32 335 4 0 8 -135 8 -300z m3570 285
c11 -13 -21 -15 -282 -15 -287 0 -295 -1 -314 -21 -18 -19 -19 -44 -24 -322
-5 -286 -6 -300 -22 -283 -16 16 -18 45 -18 325 0 225 3 310 12 319 9 9 95 12
324 12 265 0 313 -2 324 -15z m-3640 -340 l0 -296 25 -24 24 -25 293 0 c260
-1 291 -2 274 -15 -30 -23 -618 -22 -640 1 -14 13 -16 57 -16 323 0 301 3 331
32 331 4 0 8 -133 8 -295z m3710 280 c11 -13 -22 -15 -284 -15 -283 0 -297 -1
-316 -20 -19 -19 -20 -33 -20 -316 0 -276 -1 -295 -17 -292 -17 3 -18 27 -21
317 -2 223 1 318 9 327 18 22 631 20 649 -1z m-3780 -337 c1 -315 1 -317 54
-338 16 -6 138 -10 304 -10 246 -1 275 -2 258 -15 -16 -12 -71 -15 -318 -15
-285 0 -299 1 -318 20 -19 19 -20 33 -20 316 0 283 5 334 30 334 6 0 10 -111
10 -292z m3848 275 c3 -10 -59 -13 -286 -13 -278 0 -290 -1 -316 -21 l-26 -20
0 -295 c0 -285 -4 -323 -30 -275 -14 27 -14 595 0 622 10 19 23 19 332 17 246
-2 322 -6 326 -15z m-1688 -44 c0 -15 -5 -20 -22 -17 -27 4 -35 25 -11 31 31
8 33 7 33 -14z m-87 4 c-7 -2 -19 -2 -25 0 -7 3 -2 5 12 5 14 0 19 -2 13 -5z
m-2133 -301 c0 -291 1 -299 21 -318 20 -18 42 -19 316 -22 257 -2 293 -5 283
-17 -19 -23 -622 -22 -644 1 -14 13 -16 57 -16 323 0 301 3 331 32 331 4 0 8
-134 8 -298z m3970 283 c11 -13 -20 -15 -267 -15 -289 0 -334 -5 -353 -40 -6
-11 -10 -139 -10 -311 0 -258 -2 -290 -15 -279 -13 11 -15 59 -15 324 0 229 3
315 12 324 9 9 95 12 324 12 265 0 313 -2 324 -15z m56 -62 c17 -17 3 -18
-283 -23 -278 -5 -303 -6 -322 -24 -20 -19 -21 -27 -21 -313 0 -266 -5 -326
-24 -277 -3 9 -6 155 -6 324 0 284 1 310 18 319 10 6 132 11 319 11 274 0 303
-2 319 -17z m-4094 -288 c3 -267 5 -296 21 -312 16 -16 45 -18 317 -21 257 -2
298 -5 293 -17 -4 -13 -54 -15 -322 -15 -233 0 -320 3 -329 12 -9 9 -12 92
-12 314 0 166 3 309 6 318 18 47 23 -11 26 -279z m4154 218 c17 -17 3 -18
-292 -23 -170 -3 -310 -7 -311 -8 -1 -1 -9 -15 -18 -32 -12 -24 -15 -77 -15
-305 0 -182 -3 -274 -10 -270 -15 9 -13 628 2 643 9 9 94 12 319 12 280 0 309
-2 325 -17z m-4216 -277 c0 -271 1 -284 21 -310 l20 -26 300 0 c164 0 299 -4
299 -8 0 -29 -29 -32 -337 -32 -299 0 -313 1 -323 19 -11 21 -15 597 -4 625
19 49 24 -10 24 -268z m4268 212 c7 -7 12 -16 12 -20 0 -4 -132 -8 -294 -8
-282 0 -294 -1 -320 -21 l-26 -20 0 -290 c0 -262 -5 -322 -24 -273 -11 28 -7
604 4 625 10 18 24 19 323 19 230 0 316 -3 325 -12z m-4299 -599 c22 -18 43
-19 322 -19 297 0 300 0 289 -20 -10 -19 -21 -20 -323 -20 -230 0 -316 3 -325
12 -14 14 -18 629 -4 642 4 4 9 -124 12 -284 l5 -292 24 -19z m4355 525 c9 -8
14 -20 11 -25 -4 -5 -136 -9 -310 -9 -303 0 -304 0 -319 -22 -14 -19 -16 -65
-16 -305 0 -173 -4 -283 -10 -283 -18 0 -21 66 -18 346 2 220 6 285 17 297 12
15 47 17 322 17 267 0 310 -2 323 -16z m-4434 -283 l0 -290 26 -20 c26 -20 38
-21 321 -21 275 0 294 -1 291 -17 -3 -17 -28 -18 -323 -21 -292 -2 -321 -1
-332 15 -10 13 -13 92 -13 314 0 164 3 304 6 313 19 49 24 -11 24 -273z m4483
207 l22 -23 -315 -5 c-173 -3 -316 -7 -317 -8 -24 -24 -28 -68 -33 -327 l-6
-280 -2 322 c-2 297 -1 323 16 332 10 6 131 11 315 11 295 0 297 0 320 -22z
m-4509 -594 c16 -11 76 -14 318 -14 255 0 298 -2 298 -15 0 -31 -39 -35 -334
-35 -283 0 -297 1 -316 20 -19 19 -20 33 -20 316 0 218 3 301 13 317 10 18 13
-31 17 -276 5 -281 6 -299 24 -313z m4554 524 c36 -36 20 -38 -290 -38 -296 0
-302 0 -325 -22 -23 -21 -23 -22 -23 -307 0 -188 -4 -281 -10 -271 -13 21 -13
605 0 631 10 18 24 19 323 19 230 0 316 -3 325 -12z m-4614 -587 c19 -20 27
-21 328 -21 169 0 308 -3 308 -6 0 -3 -5 -14 -10 -25 -10 -18 -24 -19 -323
-19 -230 0 -316 3 -325 12 -9 9 -11 93 -10 327 l2 316 6 -281 c5 -259 7 -284
24 -303z m4664 507 c36 -36 21 -38 -296 -38 l-309 0 -21 -23 c-21 -22 -22 -32
-25 -302 l-2 -280 -3 321 c-1 176 1 324 5 327 3 4 149 7 323 7 232 0 319 -3
328 -12z m-4701 -587 c25 -20 38 -21 324 -21 239 0 299 -3 299 -13 0 -35 -20
-37 -331 -37 -266 0 -310 2 -323 16 -14 13 -16 57 -16 323 0 169 3 311 8 315
4 4 8 -121 10 -278 l2 -285 27 -20z m4731 513 c12 -8 22 -22 22 -30 0 -12 -46
-14 -308 -14 -250 0 -312 -3 -328 -14 -18 -13 -19 -32 -24 -303 l-6 -288 -2
315 c-1 173 2 320 6 326 13 21 38 22 327 23 248 1 294 -1 313 -15z m-4775
-590 l28 -24 300 0 c256 0 299 -2 299 -15 0 -32 -37 -36 -345 -33 -259 3 -307
5 -315 18 -6 9 -9 143 -8 325 l2 310 6 -278 5 -279 28 -24z m4815 510 c12 -8
22 -22 22 -30 0 -12 -46 -14 -306 -14 -197 0 -312 -4 -325 -11 -11 -6 -24 -20
-29 -32 -7 -17 -9 -10 -9 31 -1 46 2 54 22 62 12 5 153 9 312 9 248 1 294 -1
313 -15z m-4864 -583 c19 -20 27 -21 328 -21 299 0 308 -1 308 -20 0 -10 -9
-24 -19 -30 -12 -6 -131 -10 -317 -10 -263 0 -300 2 -316 17 -17 15 -18 37
-16 327 l2 311 6 -276 c5 -254 7 -279 24 -298z m2629 494 c320 -56 613 -241
800 -506 61 -87 139 -252 171 -360 119 -415 9 -866 -289 -1178 -236 -248 -546
-381 -885 -381 -337 0 -647 133 -881 376 -99 104 -158 189 -219 315 -162 342
-162 719 0 1056 64 133 115 208 214 312 184 192 418 319 675 365 103 19 309
19 414 1z m2285 -12 l3 -23 -304 0 c-292 0 -305 -1 -330 -21 l-27 -20 -3 -277
-2 -277 -3 311 c-1 232 1 313 10 322 9 9 92 12 333 10 l320 -3 3 -22z m18 -61
c6 -4 13 -15 17 -24 6 -16 -17 -17 -309 -20 l-316 -3 -25 -30 -26 -30 5 49 c3
27 12 52 19 57 17 11 620 12 635 1z m-5003 -589 c16 -16 46 -18 332 -21 291
-3 314 -4 308 -20 -4 -9 -11 -20 -17 -24 -16 -11 -618 -9 -636 2 -13 8 -15 55
-16 317 l0 308 5 -272 c5 -244 8 -274 24 -290z m5028 507 c10 -6 19 -20 19
-30 0 -19 -9 -20 -310 -20 l-311 0 -24 -25 -25 -24 0 34 c0 22 8 43 20 55 19
19 33 20 316 20 184 0 303 -4 315 -10z m37 -92 c7 -7 12 -20 12 -30 0 -17 -18
-18 -317 -18 -280 0 -319 -2 -335 -17 -17 -15 -18 -14 -18 18 0 19 5 40 12 47
17 17 629 17 646 0z m13 -78 c10 -6 19 -20 19 -30 0 -19 -8 -20 -306 -20 -301
0 -336 -3 -356 -34 -4 -6 -8 6 -8 26 0 67 5 68 338 68 183 0 301 -4 313 -10z
m27 -92 c7 -7 12 -20 12 -30 0 -17 -18 -18 -317 -18 -280 0 -319 -2 -335 -17
-17 -15 -18 -15 -18 15 0 62 0 62 339 62 225 0 310 -3 319 -12z m22 -97 c5
-11 10 -24 10 -30 0 -8 -101 -11 -323 -11 -238 0 -326 -3 -335 -12 -9 -9 -12
-5 -12 18 0 17 5 35 12 42 9 9 95 12 325 12 299 0 313 -1 323 -19z m-4764 -81
c265 0 314 -2 314 -14 0 -8 -7 -22 -16 -30 -13 -14 -57 -16 -323 -16 -225 0
-310 3 -319 12 -7 7 -12 32 -12 56 l0 45 21 -27 20 -26 315 0z m4772 -2 c7 -7
12 -20 12 -30 0 -17 -18 -18 -319 -18 -176 0 -326 -3 -335 -6 -12 -5 -16 0
-16 18 0 13 5 29 12 36 17 17 629 17 646 0z m12 -88 c29 -45 28 -45 -290 -42
-174 2 -314 -1 -335 -7 -32 -9 -35 -8 -35 12 0 26 10 42 30 50 8 3 151 5 318
4 257 -2 304 -4 312 -17z m-5163 -69 c15 -7 116 -11 327 -11 168 0 306 -4 306
-8 0 -5 -6 -16 -12 -25 -12 -16 -41 -17 -333 -15 l-320 3 -3 45 c-1 25 1 40 5
34 5 -6 18 -16 30 -23z m5163 -21 c44 -44 39 -45 -291 -42 -198 2 -322 -1
-341 -7 -29 -10 -30 -10 -23 17 12 51 16 52 337 52 285 0 299 -1 318 -20z
m-4875 -70 c297 0 315 -1 315 -18 0 -40 -12 -42 -335 -42 -229 0 -314 3 -323
12 -7 7 -12 29 -12 50 l0 38 20 -20 c19 -19 33 -20 335 -20z m4879 -16 c9 -8
16 -27 16 -40 0 -22 -2 -23 -20 -14 -14 7 -124 10 -335 8 l-315 -3 0 22 c0 12
8 27 18 32 10 6 132 11 319 11 261 0 304 -2 317 -16z m-4897 -74 c266 0 313
-2 313 -14 0 -8 -10 -22 -22 -30 -19 -14 -66 -16 -310 -16 -162 0 -298 4 -312
10 -21 8 -26 16 -26 45 0 35 0 36 22 21 19 -14 68 -16 335 -16z m4897 -16 c9
-8 16 -27 16 -40 0 -22 -3 -23 -20 -14 -13 7 -126 10 -335 8 -312 -3 -315 -3
-315 18 0 43 9 44 331 44 266 0 310 -2 323 -16z m-4920 -64 c298 0 316 -1 316
-18 0 -40 -12 -42 -335 -42 -229 0 -314 3 -323 12 -7 7 -12 25 -12 40 0 25 2
27 19 18 13 -6 137 -10 335 -10z m4914 -22 c7 -7 12 -21 12 -33 0 -20 -4 -20
-335 -20 -355 0 -350 -1 -325 46 10 18 24 19 323 19 230 0 316 -3 325 -12z
m-4935 -68 c299 0 317 -1 317 -18 0 -41 -12 -42 -337 -42 -299 0 -313 1 -323
19 -5 11 -10 32 -10 47 0 26 1 26 18 11 16 -15 55 -17 335 -17z m4937 -29 c5
-11 10 -29 10 -41 0 -17 -3 -19 -19 -10 -13 6 -138 10 -340 10 -177 0 -321 2
-321 4 0 3 4 16 10 30 l10 26 319 0 c306 0 321 -1 331 -19z m-4937 -59 c282 3
307 2 307 -14 0 -9 -7 -24 -16 -32 -13 -14 -56 -16 -315 -16 -188 0 -308 4
-320 10 -12 7 -19 21 -19 40 0 27 2 28 28 19 17 -6 153 -8 335 -7z m4927 -38
c16 -42 13 -56 -9 -44 -13 6 -138 10 -340 10 -221 0 -321 3 -321 11 0 6 5 19
10 30 10 18 25 19 331 19 l319 0 10 -26z m-4947 -49 c290 0 317 -1 317 -17 0
-9 -7 -24 -16 -32 -13 -14 -56 -16 -319 -16 -331 0 -335 1 -335 57 0 21 3 24
18 17 9 -5 160 -9 335 -9z m4921 -21 c9 -8 16 -29 16 -45 0 -29 -1 -29 -24
-14 -20 13 -67 15 -335 13 -286 -3 -311 -2 -311 14 0 9 7 24 16 32 13 14 56
16 319 16 263 0 306 -2 319 -16z m-4607 -68 c2 -2 -1 -15 -6 -30 l-11 -26
-319 0 c-306 0 -321 1 -331 19 -25 47 -31 46 327 43 185 -1 339 -4 340 -6z
m4591 -18 c7 -7 12 -28 12 -47 0 -32 -1 -33 -18 -18 -16 15 -55 17 -335 17
-268 0 -317 2 -317 14 0 8 7 22 16 30 13 14 57 16 323 16 225 0 310 -3 319
-12z m-4598 -83 c0 -44 -9 -45 -335 -45 -326 0 -335 1 -335 45 0 20 4 20 335
20 331 0 335 0 335 -20z m4578 -7 c7 -7 12 -28 12 -47 0 -34 0 -34 -21 -15
-20 18 -40 19 -335 19 -277 0 -314 2 -314 16 0 37 16 39 335 39 229 0 314 -3
323 -12z m-4578 -83 c0 -44 -9 -45 -337 -45 -299 0 -313 1 -323 19 -25 47 -30
46 325 46 331 0 335 0 335 -20z m4552 -2 c11 -10 18 -30 18 -54 l0 -38 -25 24
-24 25 -311 0 c-301 0 -310 1 -310 20 0 10 8 24 18 29 10 6 132 11 316 11 265
0 302 -2 318 -17z m-4552 -112 c-10 -21 -18 -21 -323 -21 -328 0 -337 1 -337
45 0 20 3 20 322 17 222 -2 325 1 332 8 16 16 20 -23 6 -49z m4528 27 c7 -7
12 -30 12 -51 l0 -39 -19 23 -19 24 -316 3 c-323 3 -339 5 -304 40 17 17 629
17 646 0z m-4522 -113 l-16 -25 -310 0 c-267 0 -311 2 -324 16 -9 8 -16 23
-16 32 0 16 26 17 320 14 197 -2 327 1 338 7 24 14 28 -13 8 -44z m4492 33 c9
-9 11 -92 10 -323 l-3 -310 -2 276 c-3 266 -4 277 -24 295 -20 18 -43 19 -330
22 -316 3 -332 5 -297 40 17 17 629 17 646 0z m-4482 -124 l-16 -24 -310 0
c-308 0 -309 0 -324 22 -9 12 -16 27 -16 33 0 7 105 9 318 7 267 -2 320 0 337
12 18 13 20 13 23 -5 2 -11 -4 -31 -12 -45z m4448 34 c14 -19 16 -65 14 -323
l-2 -300 -6 272 c-5 267 -5 273 -28 295 -22 23 -27 23 -332 28 l-310 5 15 23
16 22 309 0 c308 0 309 0 324 -22z m-4274 -622 l-10 -26 -319 0 c-306 0 -321
1 -331 19 -5 11 -10 22 -10 25 0 3 141 6 314 6 l315 0 20 26 c20 25 21 41 23
288 l3 261 2 -286 c2 -173 -1 -297 -7 -313z m-154 509 c-4 -17 -15 -26 -39
-30 -17 -3 -162 -5 -320 -3 -302 3 -306 4 -307 48 0 13 40 15 307 12 238 -2
314 1 333 11 29 15 36 4 26 -38z m4382 39 l22 -15 -2 -312 -2 -312 -6 277 c-5
272 -5 278 -28 300 -22 23 -25 23 -327 26 -254 2 -305 5 -305 17 0 31 37 34
330 35 252 0 299 -2 318 -16z m-4193 -641 c-6 -18 -635 -19 -653 -1 -36 36
-21 38 298 38 297 0 311 1 330 20 19 19 20 35 22 298 l3 277 2 -310 c2 -170 1
-315 -2 -322z m-175 507 c-10 -19 -18 -20 -323 -20 -325 0 -337 1 -337 42 0
17 18 18 319 18 285 0 320 2 332 17 13 15 14 14 17 -10 2 -14 -2 -35 -8 -47z
m4334 54 c14 -13 16 -57 16 -324 0 -195 -4 -311 -10 -315 -7 -4 -10 91 -10
279 l0 285 -26 20 c-26 20 -38 21 -325 21 -255 0 -299 2 -299 15 0 31 36 34
337 35 261 0 304 -2 317 -16z m-4119 -631 l-5 -23 -318 0 c-323 0 -342 2 -342
37 0 10 62 13 310 13 297 0 311 1 330 20 19 19 20 35 22 303 l3 282 3 -305 c1
-168 0 -315 -3 -327z m4079 551 c14 -13 16 -56 16 -317 0 -178 -4 -308 -10
-317 -6 -10 -10 81 -10 266 0 269 -1 282 -21 308 l-20 26 -305 0 c-243 0 -304
3 -304 13 0 35 20 37 331 37 266 0 310 -2 323 -16z m-4264 -23 c0 -61 -1 -61
-339 -61 -319 0 -331 2 -331 42 0 17 18 18 313 18 260 0 316 2 333 15 25 19
24 19 24 -14z m239 -298 c1 -161 -3 -293 -9 -307 l-10 -26 -319 0 c-306 0
-321 1 -331 19 -5 11 -10 22 -10 25 0 3 138 6 307 6 301 0 307 0 330 22 23 21
23 22 24 302 0 166 4 273 9 261 5 -11 9 -147 9 -302z m3979 245 c15 -15 17
-634 2 -643 -7 -4 -10 91 -10 278 0 265 -1 286 -19 308 l-19 24 -306 3 c-168
2 -306 6 -306 10 0 29 30 32 335 32 229 0 314 -3 323 -12z m-4202 -74 c-4 -12
-60 -14 -324 -14 -323 0 -342 2 -342 37 0 10 61 13 305 13 300 0 352 5 357 34
0 6 3 -4 5 -22 3 -19 2 -40 -1 -48z m264 -249 c0 -301 -1 -315 -19 -325 -27
-14 -605 -14 -632 0 -10 6 -19 17 -19 25 0 13 44 15 303 15 291 0 304 1 325
20 22 20 22 25 22 306 0 188 3 283 10 279 6 -4 10 -122 10 -320z m3888 253
c15 -15 17 -634 2 -643 -7 -4 -10 90 -10 274 l0 280 -24 28 -24 28 -303 5
c-288 5 -302 6 -285 23 16 15 45 17 325 17 225 0 310 -3 319 -12z m-3838 -329
c0 -224 -3 -308 -12 -317 -9 -9 -94 -12 -323 -12 -305 0 -335 3 -335 32 0 4
138 8 306 10 l306 3 19 24 c18 22 19 43 19 310 0 188 4 281 10 271 6 -9 10
-141 10 -321z m-296 234 c-23 -17 -604 -19 -635 -3 -10 6 -19 20 -19 30 0 19
9 20 315 20 288 0 317 2 333 18 16 16 17 16 20 -17 2 -25 -2 -39 -14 -48z
m4080 21 c23 -23 24 -625 1 -644 -13 -11 -15 21 -15 280 0 259 -2 296 -17 312
-15 17 -38 18 -320 18 -258 0 -303 2 -303 15 0 31 36 34 337 35 261 0 304 -2
317 -16z m-3734 -321 c0 -166 -3 -308 -6 -317 -5 -14 -43 -16 -323 -16 -312 0
-341 3 -341 32 0 4 135 8 300 8 l301 0 24 25 25 24 0 288 c0 190 4 283 10 273
6 -9 10 -139 10 -317z m-311 221 c-9 -12 -65 -14 -323 -14 -316 0 -336 2 -336
37 0 9 70 13 316 15 309 3 317 3 333 24 16 21 16 21 19 -13 2 -19 -2 -41 -9
-49z m3991 26 c19 -19 20 -33 20 -318 0 -247 -3 -302 -15 -318 -13 -17 -14 13
-15 263 0 185 -4 290 -11 306 -20 44 -43 47 -344 47 -174 0 -285 4 -285 10 0
25 48 29 333 30 284 0 298 -1 317 -20z m-3620 -322 c0 -285 -1 -299 -20 -318
-19 -19 -33 -20 -320 -20 -298 0 -300 0 -322 23 l-23 22 305 3 c296 2 305 3
327 24 23 21 23 22 23 312 1 258 2 289 15 272 12 -16 15 -71 15 -318z m3564
256 c23 -23 24 -625 1 -644 -13 -11 -15 21 -15 279 l0 292 -25 24 -24 25 -296
0 c-180 0 -295 4 -295 10 0 25 48 29 337 30 261 0 304 -2 317 -16z m-3516
-314 c2 -222 -1 -317 -9 -326 -9 -11 -71 -14 -323 -14 -307 0 -336 3 -336 32
0 4 135 8 300 8 287 0 301 1 320 20 19 19 20 33 20 311 0 228 3 290 13 287 9
-4 13 -78 15 -318z m62 -74 c0 -229 -3 -315 -12 -324 -9 -9 -94 -12 -323 -12
-306 0 -335 3 -335 32 0 4 134 8 297 8 291 0 297 0 320 22 l23 21 0 295 c0
261 2 293 15 282 13 -11 15 -59 15 -324z m3398 322 c9 -9 12 -95 12 -324 0
-265 -2 -313 -15 -324 -13 -11 -15 21 -15 280 l0 292 -29 29 -29 29 -292 0
c-259 0 -291 2 -280 15 11 13 59 15 324 15 229 0 315 -3 324 -12z m-3340 -392
l-3 -321 -324 0 c-251 0 -325 3 -328 13 -4 9 58 12 287 12 l291 0 24 25 25 24
0 297 c0 264 2 295 15 284 13 -11 15 -57 13 -334z m3276 328 c14 -13 16 -56
16 -315 0 -288 -5 -339 -30 -339 -6 0 -10 112 -10 294 0 274 -1 295 -19 317
l-19 24 -297 3 c-257 3 -295 5 -285 18 10 12 64 14 321 14 266 0 310 -2 323
-16z m-3204 -384 c0 -248 -3 -310 -14 -319 -20 -17 -648 -11 -654 7 -3 9 60
12 292 12 283 0 297 1 316 20 19 19 20 33 20 322 0 300 0 301 20 283 19 -17
20 -31 20 -325z m3133 328 c16 -12 17 -41 15 -332 -2 -239 -6 -320 -15 -323
-9 -3 -13 66 -15 291 -3 292 -3 296 -26 318 -22 23 -26 23 -313 26 -253 2
-289 5 -279 17 10 13 62 15 314 15 226 0 306 -3 319 -12z m-3075 -392 l-3
-321 -324 0 c-251 0 -325 3 -328 13 -4 9 59 12 290 12 286 0 294 1 313 21 18
20 19 42 22 321 2 262 5 298 18 288 12 -11 14 -61 12 -334z m3014 327 c17 -15
18 -38 18 -315 0 -286 -5 -338 -30 -338 -5 0 -10 126 -12 301 l-3 301 -24 19
c-22 18 -43 19 -313 19 -257 0 -289 2 -278 15 11 13 59 15 318 15 270 0 308
-2 324 -17z m-2954 -55 c17 -17 17 -629 0 -646 -9 -9 -92 -12 -314 -12 -166 0
-309 3 -318 6 -49 19 11 24 274 24 277 0 291 1 310 20 19 19 20 33 20 320 0
165 4 300 8 300 4 0 13 -5 20 -12z m2892 -7 c6 -12 10 -132 10 -320 0 -272 -2
-301 -17 -317 -17 -17 -18 -3 -23 285 l-5 303 -28 24 -28 24 -280 0 c-184 0
-278 3 -274 10 4 6 122 10 320 10 301 0 315 -1 325 -19z m-2821 -45 c8 -9 11
-105 9 -332 l-3 -319 -319 -3 c-206 -1 -323 1 -330 8 -7 7 83 10 276 10 273 0
286 1 312 21 l26 20 0 305 c0 168 4 304 9 304 5 0 14 -6 20 -14z m2743 -3 c17
-15 18 -38 18 -315 0 -299 -4 -338 -35 -338 -13 0 -15 43 -15 299 0 279 -1
300 -19 322 l-19 24 -286 3 c-179 2 -284 6 -281 12 4 6 128 10 312 10 271 0
309 -2 325 -17z m-2670 -50 c17 -15 18 -38 18 -315 0 -187 -4 -307 -10 -319
-10 -18 -25 -19 -330 -19 -202 0 -321 4 -325 10 -4 7 93 10 284 10 278 0 292
1 311 20 19 19 20 33 20 325 0 168 3 305 7 305 3 0 15 -7 25 -17z m2591 5 c16
-12 17 -41 15 -333 -3 -292 -4 -320 -20 -323 -16 -3 -17 20 -20 302 -3 277 -5
307 -21 323 -16 16 -45 18 -303 21 -178 2 -282 6 -279 12 10 16 607 13 628 -2z
m-2515 -50 c17 -17 17 -629 0 -646 -15 -15 -634 -17 -643 -2 -4 7 91 10 278
10 265 0 286 1 308 19 l24 19 3 306 c2 168 6 306 10 306 5 0 13 -5 20 -12z
m2446 -4 c14 -13 16 -57 16 -323 0 -311 -2 -331 -37 -331 -10 0 -13 61 -13
303 0 291 -1 304 -20 325 -20 22 -25 22 -306 22 -188 0 -283 3 -279 10 4 6
120 10 315 10 267 0 311 -2 324 -16z m-2366 -46 c9 -9 12 -94 12 -319 0 -266
-2 -310 -16 -323 -13 -14 -56 -16 -317 -16 -178 0 -308 4 -317 10 -10 6 83 10
272 10 l287 0 20 26 c20 26 21 38 21 325 0 307 2 323 38 287z m2300 -313 c2
-292 1 -321 -15 -332 -9 -7 -20 -13 -25 -13 -4 0 -8 139 -8 308 l0 309 -23 21
c-22 21 -32 22 -302 25 -271 2 -269 2 45 2 l325 0 3 -320z m-2218 266 c6 -12
10 -132 10 -320 0 -259 -2 -302 -16 -315 -13 -14 -55 -16 -327 -14 l-312 2
278 6 279 5 24 28 24 28 0 300 c0 256 2 299 15 299 8 0 19 -9 25 -19z m2124
13 c14 -5 16 -43 16 -323 0 -322 -2 -341 -37 -341 -10 0 -13 62 -13 308 0 250
-3 312 -14 328 -13 18 -32 19 -303 24 l-288 6 312 2 c171 1 318 -1 327 -4z
m-2044 -53 c6 -12 10 -130 10 -313 0 -250 -2 -297 -16 -316 l-15 -22 -312 2
-312 2 277 6 c272 5 278 5 300 28 23 22 23 25 26 327 3 254 5 305 17 305 8 0
19 -9 25 -19z m1980 -7 c6 -14 10 -150 10 -312 0 -244 -2 -291 -16 -310 -8
-12 -22 -22 -30 -22 -12 0 -14 46 -14 308 0 331 -2 345 -53 355 -12 2 4 5 36
6 53 1 58 -1 67 -25z m-1908 -21 c17 -15 18 -38 18 -323 0 -225 -3 -309 -12
-318 -7 -7 -32 -12 -56 -12 l-45 0 27 21 26 20 0 315 c0 328 1 334 42 297z
m1811 5 c16 -12 17 -41 15 -333 l-3 -320 -22 -3 -23 -3 0 304 c0 292 -1 305
-21 330 l-20 27 -277 3 -277 2 306 3 c231 1 309 -1 322 -10z m-1725 -40 c9 -9
12 -94 12 -319 0 -266 -2 -310 -16 -323 -13 -14 -55 -16 -322 -14 l-307 3 276
2 c266 3 277 4 295 24 18 20 19 43 22 330 3 316 5 332 40 297z m1650 0 c9 -9
12 -95 12 -325 0 -299 -1 -313 -19 -323 -11 -5 -22 -10 -25 -10 -3 0 -6 142
-8 316 l-3 316 -24 19 -23 19 39 0 c21 0 44 -5 51 -12z m-1560 -342 c2 -227
-1 -323 -9 -332 -7 -9 -30 -14 -58 -13 -39 0 -43 2 -25 11 41 19 44 46 44 359
l0 300 23 -3 22 -3 3 -319z m1482 305 c6 -12 10 -132 10 -320 0 -259 -2 -302
-16 -315 -8 -9 -22 -16 -30 -16 -12 0 -14 48 -14 313 0 267 -2 316 -16 335
-15 21 -14 22 20 22 25 0 38 -6 46 -19z m-1408 -18 c17 -15 18 -38 18 -323 0
-225 -3 -309 -12 -318 -7 -7 -27 -12 -46 -12 -32 0 -33 1 -18 22 14 19 16 68
16 335 0 327 1 333 42 296z m1311 5 c16 -12 17 -41 15 -333 l-3 -320 -25 -3
-25 -3 0 316 0 317 -24 19 -23 19 34 0 c19 0 42 -6 51 -12z m-1215 -342 c2
-227 -1 -323 -9 -332 -6 -8 -27 -14 -47 -14 -35 0 -35 0 -16 21 18 20 19 43
22 336 l3 314 22 -3 22 -3 3 -319z m1142 305 c6 -12 10 -131 10 -317 0 -263
-2 -300 -17 -316 -41 -46 -43 -35 -43 295 0 267 -2 316 -16 335 -15 21 -14 22
20 22 25 0 38 -6 46 -19z m-1062 -13 c9 -9 12 -95 12 -325 0 -299 -1 -313 -19
-323 -11 -5 -31 -10 -46 -10 -25 0 -25 1 -11 22 14 19 16 68 16 335 0 295 1
313 18 313 10 0 23 -5 30 -12z m970 0 c9 -9 12 -95 12 -325 0 -299 -1 -313
-19 -323 -11 -5 -24 -10 -30 -10 -8 0 -11 99 -11 316 0 198 -4 322 -10 335 -9
17 -7 19 18 19 15 0 33 -5 40 -12z m-886 -15 c17 -15 18 -38 18 -323 0 -225
-3 -309 -12 -318 -7 -7 -25 -12 -40 -12 -26 0 -28 2 -18 20 7 13 10 126 8 335
-3 336 -3 340 44 298z m791 5 c16 -12 17 -41 15 -333 l-3 -320 -27 -3 -28 -3
0 316 c0 199 -4 323 -10 336 -9 16 -7 19 13 19 13 0 31 -6 40 -12z m-693 -27
c6 -12 10 -130 10 -313 0 -325 -2 -338 -60 -338 -28 0 -28 0 -14 29 12 25 14
83 12 335 l-3 306 22 0 c12 0 27 -9 33 -19z m620 0 c6 -12 10 -130 10 -313 0
-250 -2 -297 -16 -316 -8 -12 -23 -22 -32 -22 -16 0 -17 24 -14 306 2 187 -1
318 -7 335 -9 28 -9 29 19 29 19 0 33 -7 40 -19z m-532 -315 c2 -227 -1 -323
-9 -332 -6 -8 -25 -14 -42 -14 -24 0 -28 3 -19 12 9 9 12 97 12 336 l0 323 28
-3 27 -3 3 -319z m75 312 c16 -12 17 -41 15 -333 l-3 -320 -30 -3 -30 -3 0
336 c0 297 2 335 16 335 8 0 23 -6 32 -12z m265 -4 c22 -15 22 -16 22 -323 0
-322 -1 -331 -45 -331 -20 0 -20 3 -17 315 2 209 -1 322 -8 335 -9 17 -8 20 7
20 10 0 29 -7 41 -16z m102 -3 c6 -12 10 -132 10 -320 0 -259 -2 -302 -16
-315 -8 -9 -23 -16 -32 -16 -16 0 -17 26 -14 315 2 211 -1 321 -8 335 -10 18
-8 20 19 20 20 0 34 -7 41 -19z m-272 -3 c9 -9 12 -95 12 -325 0 -299 -1 -313
-19 -323 -47 -25 -46 -30 -46 325 0 331 0 335 21 335 11 0 25 -5 32 -12z m90
0 c9 -9 12 -95 12 -325 0 -299 -1 -313 -19 -323 -47 -25 -46 -30 -46 325 0
331 0 335 21 335 11 0 25 -5 32 -12z"/>
<path d="M3336 4600 c-165 -26 -371 -112 -496 -208 -203 -154 -351 -375 -417
-619 -24 -89 -27 -115 -26 -273 0 -157 3 -185 26 -273 31 -117 97 -260 166
-360 61 -88 184 -212 272 -274 92 -65 248 -138 364 -169 91 -25 116 -27 275
-27 159 0 184 2 275 27 116 31 272 104 364 169 88 62 211 186 272 274 69 100
135 243 166 360 24 88 26 116 26 273 0 157 -2 185 -26 273 -65 244 -214 465
-417 619 -91 70 -266 153 -385 184 -112 29 -332 41 -439 24z"/>
</g>
</svg>
